<svg xmlns="http://www.w3.org/2000/svg" width="599" height="303" viewBox="219 388 599 303">
<path fill-rule="nonzero" fill="rgb(100%, 100%, 100%)" fill-opacity="1" d="M 321.992188 555.886719 C 313.441406 553.589844 302.714844 554.777344 293.839844 554.339844 C 289.6875 554.144531 289.726562 560.597656 293.839844 560.792969 C 299.941406 561.070312 306 561.347656 312.097656 561.625 C 316.164062 561.820312 317.710938 561.347656 320.882812 564.394531 C 324.207031 567.679688 323.492188 568.789062 323.335938 573.222656 C 322.863281 585.652344 325.394531 604.691406 309.71875 608.214844 C 298.914062 610.632812 284.390625 603.347656 274.800781 598.636719 C 264.75 593.648438 255.609375 586.839844 252.835938 575.398438 C 247.925781 555.488281 247.414062 526.671875 259.765625 509.449219 C 265.980469 500.742188 275.59375 494.648438 286.167969 492.628906 C 292.496094 491.359375 297.882812 491.679688 301.011719 497.734375 C 303.824219 503.195312 304.257812 512.144531 305.601562 518.160156 C 306.511719 522.199219 312.726562 520.457031 311.816406 516.417969 C 309.207031 504.699219 309.835938 486.296875 294.558594 485.464844 C 281.527344 484.75 267.757812 491.164062 258.816406 500.386719 C 247.683594 511.945312 244.207031 527.820312 243.886719 543.417969 C 243.617188 557.429688 243.179688 575.597656 251.132812 587.789062 C 258.140625 598.515625 270.492188 604.140625 282.011719 608.769531 C 294.441406 613.757812 311.699219 619.851562 322.824219 608.492188 C 326.585938 604.734375 328.003906 599.824219 328.757812 594.71875 C 330.101562 585.730469 331.492188 573.105469 329.949219 564.15625 C 329.117188 559.371094 326.546875 557.070312 321.992188 555.886719 "/>
<path fill-rule="nonzero" fill="rgb(100%, 100%, 100%)" fill-opacity="1" d="M 350.359375 539.296875 C 351.925781 524.058594 352.53125 508.867188 351.90625 493.8125 C 356.042969 501.445312 360.109375 514.210938 361.453125 517.347656 C 363.90625 522.863281 366.351562 528.410156 368.796875 533.945312 C 362.652344 535.726562 356.476562 537.410156 350.359375 539.296875 M 377.535156 537.816406 C 379.1875 537.347656 380.808594 536.753906 382.464844 536.292969 C 388.164062 534.75 393.828125 533.207031 399.492188 531.742188 C 403.492188 530.710938 401.792969 524.496094 397.792969 525.527344 C 390.148438 527.519531 382.628906 529.984375 375.023438 532.136719 C 370.132812 521.050781 365.242188 509.992188 360.351562 498.898438 C 358.050781 493.660156 356.234375 486.441406 351.527344 483.21875 C 350.9375 480.21875 347.167969 479.765625 345.835938 481.796875 C 343.199219 482.472656 343.03125 485.996094 345.324219 487.304688 C 346.597656 505.09375 345.660156 523.148438 343.75 541.21875 C 342.007812 541.769531 340.230469 542.1875 338.492188 542.746094 C 332.90625 544.566406 327.328125 546.429688 321.742188 548.289062 C 320.128906 548.84375 319.015625 550.503906 319.53125 552.246094 C 319.964844 553.828125 321.828125 555.058594 323.492188 554.503906 C 329.964844 552.289062 336.578125 550.527344 343.109375 548.445312 C 340.597656 569.617188 337.050781 590.730469 334.558594 611.3125 C 334.046875 615.425781 340.492188 615.390625 341.003906 611.3125 C 343.59375 590.0625 347.257812 568.246094 349.777344 546.386719 C 356.96875 544.144531 364.121094 541.8125 371.347656 539.726562 C 372.527344 542.390625 373.699219 545.042969 374.875 547.707031 L 401.636719 608.273438 C 403.300781 612.074219 408.886719 608.789062 407.222656 605.027344 C 397.308594 582.625 387.429688 560.21875 377.535156 537.816406 "/>
<path fill-rule="nonzero" fill="rgb(100%, 100%, 100%)" fill-opacity="1" d="M 414.945312 486.289062 C 430.609375 481.957031 447.40625 481.714844 453.175781 496.957031 C 456.695312 506.339844 454.007812 516.667969 448.546875 524.585938 C 442.605469 533.335938 433.742188 537.652344 426.378906 544.734375 C 426.292969 544.820312 426.28125 544.898438 426.195312 544.980469 C 421.160156 525.691406 416.257812 506.367188 414.945312 486.289062 M 432.835938 554 C 429.933594 547.902344 438.015625 544.378906 441.8125 541.132812 C 449.019531 535.035156 455.710938 527.554688 458.957031 518.570312 C 464.019531 504.714844 460.339844 487.058594 446.09375 480.449219 C 427.847656 472.019531 403.300781 482.113281 386.984375 490.664062 C 383.3125 492.601562 386.589844 498.183594 390.234375 496.246094 C 394.871094 493.804688 401.542969 490.789062 408.777344 488.289062 C 411.863281 527.746094 428.359375 564.296875 431.578125 603.613281 C 431.886719 607.726562 438.382812 607.769531 438.023438 603.613281 C 436.816406 589.042969 433.617188 574.886719 430.109375 560.792969 C 433.132812 563.238281 436.488281 565.558594 438.769531 567.855469 C 452.5 581.589844 462.078125 598.574219 467.472656 617.175781 C 468.609375 621.175781 474.824219 619.511719 473.675781 615.476562 C 468.019531 595.839844 457.804688 577.789062 443.320312 563.300781 C 440.828125 560.769531 434.332031 557.164062 432.835938 554 "/>
<path fill-rule="nonzero" fill="rgb(100%, 100%, 100%)" fill-opacity="1" d="M 485.332031 611.378906 C 485.496094 615.535156 491.941406 615.535156 491.785156 611.378906 C 490.09375 569.628906 489.273438 527.8125 488.945312 486.023438 C 492.511719 495.058594 495.882812 507.082031 496.871094 509.808594 C 501.066406 521.128906 505.265625 532.449219 509.421875 543.8125 C 517.570312 565.78125 525.6875 587.75 533.84375 609.71875 C 535.277344 613.601562 541.527344 611.9375 540.058594 608.058594 C 529.960938 580.707031 519.871094 553.390625 509.742188 526.078125 C 504.792969 512.734375 499.921875 499.4375 494.976562 486.097656 C 492.484375 479.328125 491.050781 469.390625 482.421875 469.152344 C 478.34375 469.039062 478.324219 475.195312 482.257812 475.527344 C 482.480469 520.8125 483.464844 566.132812 485.332031 611.378906 "/>
<path fill-rule="nonzero" fill="rgb(100%, 100%, 100%)" fill-opacity="1" d="M 491.894531 658.175781 C 492.144531 658.34375 492.308594 658.601562 492.578125 658.75 C 492.445312 658.652344 492.242188 658.652344 492.113281 658.542969 C 491.988281 658.429688 492.007812 658.285156 491.894531 658.175781 M 546.496094 632.527344 C 547.394531 632.277344 548.292969 632.035156 549.183594 631.753906 C 548.875 632.035156 548.554688 632.304688 548.246094 632.589844 C 548.226562 632.570312 548.253906 632.542969 548.246094 632.527344 C 547.753906 632.042969 547.125 632.632812 546.496094 632.527344 M 594.480469 581.46875 C 594.382812 579.921875 594.402344 578.363281 594.285156 576.835938 C 594.230469 576.21875 593.890625 575.71875 593.582031 575.210938 C 590.535156 560.066406 578.621094 547.191406 562.585938 543.800781 C 577.855469 527.460938 587.925781 503.339844 573.160156 483.207031 C 566.21875 473.78125 553.203125 469.25 540.253906 469.308594 C 538.863281 467.5625 536.117188 468.09375 535.167969 470.136719 C 525.023438 471.214844 515.28125 474.558594 509.421875 481.78125 C 506.816406 484.949219 511.367188 489.539062 513.976562 486.332031 C 518.847656 480.328125 527.042969 477.605469 535.59375 476.625 C 543.839844 517.351562 546.082031 558.972656 549.210938 600.316406 C 549.519531 604.433594 555.976562 604.46875 555.667969 600.316406 C 552.515625 558.660156 550.179688 516.78125 541.964844 475.730469 C 553.28125 476.101562 564.402344 480.605469 569.59375 489.460938 C 581.074219 508.976562 568.367188 530.191406 553.800781 543.613281 C 551.667969 545.59375 553.40625 549.035156 556.09375 549.113281 C 570.976562 549.667969 583.964844 560.554688 587.570312 575.082031 C 591.6875 591.550781 580.601562 605.957031 567.378906 614.3125 C 549.375 625.691406 527.835938 627.777344 507.511719 633.375 C 507.210938 633.421875 506.902344 633.46875 506.589844 633.515625 C 501.925781 634.269531 496.976562 635.058594 493.023438 637.792969 C 492.492188 638.15625 492.191406 638.746094 491.707031 639.167969 C 491.503906 639.25 491.300781 639.300781 491.109375 639.386719 C 490.703125 639.441406 490.40625 638.929688 490.019531 639.105469 C 489.476562 639.347656 489.246094 639.929688 488.761719 640.246094 C 488.460938 640.394531 488.113281 640.445312 487.816406 640.597656 C 486.875 641.058594 486.402344 641.761719 486.257812 642.527344 C 484.230469 644.925781 482.769531 647.769531 482.539062 650.898438 C 482.179688 656.246094 484.75 661.074219 488.945312 664.199219 C 493.304688 667.449219 498.964844 668.4375 504.234375 667.644531 C 510.324219 666.773438 515.984375 663.371094 521.253906 660.402344 C 532.171875 654.1875 542.425781 646.746094 551.722656 638.3125 C 556.480469 633.996094 561.109375 629.523438 566.375 625.765625 C 571.515625 622.042969 576.832031 618.636719 581.578125 614.402344 C 586.449219 610.046875 590.679688 604.785156 592.894531 598.570312 C 594.71875 593.46875 594.769531 588.074219 594.527344 582.710938 C 594.527344 582.292969 594.488281 581.886719 594.480469 581.46875 "/>
<path fill-rule="nonzero" fill="rgb(100%, 100%, 100%)" fill-opacity="1" d="M 608.707031 528.726562 C 608.046875 519.367188 607.226562 510.011719 606.203125 500.671875 C 611.3125 507.101562 615.800781 515.898438 618.398438 520.070312 C 619.867188 522.425781 621.269531 524.839844 622.726562 527.210938 C 618.058594 527.710938 613.382812 528.21875 608.707031 528.726562 M 633.347656 532.472656 C 636.90625 532.085938 640.460938 531.703125 644.027344 531.316406 C 645.769531 531.160156 647.226562 529.96875 647.226562 528.109375 C 647.226562 526.527344 645.769531 524.707031 644.027344 524.902344 C 639.324219 525.40625 634.625 525.929688 629.917969 526.429688 C 624.082031 516.921875 618.207031 507.339844 611.953125 498.0625 C 609.894531 495.011719 607.804688 492.132812 605.253906 490.050781 C 605.070312 488.601562 605.050781 487.136719 604.867188 485.6875 C 604.316406 481.652344 597.863281 481.570312 598.421875 485.6875 C 598.507812 486.394531 598.519531 487.109375 598.605469 487.816406 C 597.609375 487.640625 597.011719 486.847656 595.871094 486.898438 C 591.714844 487.097656 591.714844 493.511719 595.871094 493.351562 C 597.011719 493.304688 598.113281 494.34375 599.234375 494.863281 C 600.585938 506.363281 601.515625 517.886719 602.316406 529.417969 C 596.953125 530.003906 591.597656 530.566406 586.234375 531.160156 C 584.484375 531.316406 583.027344 532.503906 583.027344 534.363281 C 583.027344 535.949219 584.484375 537.730469 586.234375 537.570312 C 591.785156 536.980469 597.332031 536.367188 602.878906 535.769531 C 604.28125 558.683594 604.917969 581.640625 604.152344 604.640625 C 604 608.796875 610.492188 608.796875 610.609375 604.640625 C 611.371094 581.410156 610.707031 558.222656 609.265625 535.078125 C 614.96875 534.460938 620.667969 533.847656 626.371094 533.226562 C 628.613281 536.921875 630.894531 540.570312 633.089844 544.296875 C 642.664062 560.605469 651.730469 577.234375 660.398438 594.019531 C 662.304688 597.699219 667.878906 594.453125 665.976562 590.769531 C 655.75 570.972656 644.792969 551.601562 633.347656 532.472656 "/>
<path fill-rule="nonzero" fill="rgb(100%, 100%, 100%)" fill-opacity="1" d="M 666.808594 468.757812 L 703.046875 468.757812 C 707.164062 468.757812 707.164062 462.304688 703.046875 462.304688 L 594.1875 462.304688 C 590.035156 462.304688 590.035156 468.757812 594.1875 468.757812 L 661.316406 468.757812 C 661.203125 469.132812 660.902344 469.367188 660.949219 469.859375 C 664.992188 508.613281 671.28125 547.050781 677.613281 585.488281 C 678.328125 589.5625 684.542969 587.820312 683.875 583.746094 C 677.613281 545.941406 671.398438 508.015625 667.40625 469.859375 C 667.347656 469.371094 667 469.128906 666.808594 468.757812 "/>
<path fill-rule="nonzero" fill="rgb(100%, 100%, 100%)" fill-opacity="1" d="M 751.195312 566.664062 C 729.816406 579.097656 710.066406 556.929688 703.648438 538.246094 C 697.714844 520.785156 698.148438 497.15625 713.980469 485 C 714.527344 484.578125 714.675781 484 714.878906 483.449219 C 734.070312 483.335938 752.171875 492.378906 761.480469 509.742188 C 770.949219 527.558594 770.632812 555.421875 751.195312 566.664062 M 711.332031 476.808594 C 708.519531 476.996094 707.765625 479.917969 708.769531 481.746094 C 691.972656 496.84375 690.640625 522.714844 698.546875 542.953125 C 706.257812 562.828125 726.570312 583.449219 749.570312 574.625 C 773.480469 565.480469 778.429688 534.878906 770.15625 513.34375 C 760.851562 489.15625 736.824219 475.066406 711.332031 476.808594 "/>
<path fill-rule="nonzero" fill="rgb(100%, 100%, 100%)" fill-opacity="1" d="M 710.015625 506.269531 C 710.578125 512.921875 711.523438 519.492188 712.710938 526.0625 C 713.503906 530.140625 719.71875 528.398438 718.925781 524.320312 C 717.816406 518.34375 716.984375 512.367188 716.472656 506.269531 C 716.113281 502.152344 709.660156 502.113281 710.015625 506.269531 "/>
<path fill-rule="nonzero" fill="rgb(100%, 100%, 100%)" fill-opacity="1" d="M 739.386719 519.308594 C 737.996094 513.054688 737.007812 506.722656 736.410156 500.347656 C 736.0625 496.234375 729.566406 496.195312 729.964844 500.347656 C 730.628906 507.316406 731.664062 514.203125 733.171875 521.050781 C 734.082031 525.089844 740.292969 523.347656 739.386719 519.308594 "/>
<path fill-rule="nonzero" fill="rgb(100%, 100%, 100%)" fill-opacity="1" d="M 749.148438 522.828125 C 748.316406 527.898438 746.605469 532.648438 743.636719 536.839844 C 740.59375 541.15625 734.765625 547.449219 728.988281 546.460938 C 724.917969 545.75 723.167969 552.003906 727.25 552.675781 C 742.167969 555.25 753.304688 537.082031 755.351562 524.570312 C 756.066406 520.496094 749.851562 518.753906 749.148438 522.828125 "/>
<path fill-rule="nonzero" fill="rgb(100%, 100%, 100%)" fill-opacity="1" d="M 282.980469 467.933594 C 282.980469 467.933594 282.960938 467.921875 282.96875 467.921875 C 282.980469 467.875 282.949219 467.992188 282.980469 467.914062 C 282.941406 468.082031 282.929688 467.980469 282.980469 467.933594 M 283.570312 467.515625 C 283.859375 467.515625 283.789062 467.539062 283.75 467.558594 C 283.75 467.574219 283.761719 467.578125 283.769531 467.597656 C 283.644531 467.242188 283.644531 467.242188 283.769531 467.636719 C 283.808594 467.757812 283.808594 467.914062 283.769531 468.074219 C 283.769531 468.269531 283.769531 468.230469 283.808594 467.953125 C 283.769531 468.113281 283.695312 468.308594 283.644531 468.507812 C 283.65625 468.496094 283.636719 468.523438 283.644531 468.511719 C 283.636719 468.503906 283.597656 468.554688 283.375 468.425781 C 283.09375 468.230469 283.019531 468.191406 283.25 468.308594 C 282.980469 468.03125 282.941406 467.992188 283.09375 468.191406 C 282.882812 467.859375 282.941406 467.898438 282.988281 467.945312 C 283.347656 467.726562 282.910156 467.828125 283.492188 467.597656 C 283.492188 467.597656 283.925781 467.515625 283.570312 467.515625 M 283.644531 467.359375 C 283.65625 467.363281 283.65625 467.386719 283.664062 467.398438 C 283.65625 467.382812 283.617188 467.375 283.605469 467.359375 C 283.847656 467.597656 283.886719 467.597656 283.644531 467.359375 M 283.742188 468.542969 C 283.769531 468.542969 283.78125 468.507812 283.808594 468.507812 C 283.414062 468.425781 283.492188 468.585938 283.886719 468.585938 C 283.742188 468.585938 283.78125 468.542969 283.742188 468.542969 M 283.375 468.746094 C 283.414062 468.695312 283.472656 468.699219 283.519531 468.667969 C 283.460938 468.765625 283.480469 468.71875 283.453125 468.746094 C 283.644531 468.507812 283.644531 468.464844 283.375 468.746094 M 277.191406 469.285156 C 277.867188 471.878906 279.441406 474.199219 282.148438 474.800781 C 286.378906 475.792969 289.898438 472.425781 290.179688 468.347656 C 290.457031 464.546875 287.6875 461.023438 283.695312 461.066406 C 281.625 461.085938 279.722656 462.210938 278.320312 463.796875 C 277.585938 464.128906 276.96875 464.765625 276.679688 465.773438 C 276.503906 466.382812 276.9375 466.914062 276.929688 467.523438 C 276.898438 467.925781 276.464844 468.207031 276.523438 468.625 C 276.570312 468.984375 277.074219 468.960938 277.191406 469.285156 "/>
<path fill-rule="nonzero" fill="rgb(100%, 100%, 100%)" fill-opacity="1" d="M 309.789062 466.128906 C 309.769531 466.09375 309.738281 466.058594 309.738281 466.058594 C 309.855469 466.023438 309.585938 466.417969 309.625 466.335938 C 309.363281 466.597656 309.1875 466.53125 309.023438 466.578125 C 309.199219 466.183594 309.816406 466.195312 309.855469 465.742188 C 309.835938 465.914062 309.835938 465.96875 309.789062 466.128906 M 309.738281 466.375 C 309.535156 466.574219 310.210938 466.296875 309.738281 466.335938 L 309.75 466.335938 C 309.757812 466.320312 309.71875 466.40625 309.738281 466.375 M 306.296875 472.75 C 310.210938 474.375 314.570312 472.039062 315.875 468.078125 C 317.066406 464.515625 314.890625 460.714844 311.121094 460.042969 C 309.023438 459.675781 307.160156 460.367188 305.71875 461.59375 C 305.496094 461.464844 305.660156 461.070312 305.378906 460.992188 C 303.84375 460.597656 301.621094 461.546875 301.390625 463.25 C 300.839844 467.167969 302.453125 471.167969 306.296875 472.75 "/>
<path fill-rule="nonzero" fill="rgb(100%, 100%, 100%)" fill-opacity="1" d="M 783.070312 450.175781 C 782.121094 452.75 781.125 455.363281 780.132812 457.976562 C 779.667969 459.242188 779.222656 460.46875 778.710938 461.777344 C 778.605469 462.058594 778.449219 462.476562 778.363281 462.65625 C 778.3125 462.652344 778.371094 462.652344 778.3125 462.644531 C 776.535156 461.65625 773.925781 460.507812 771.90625 459.519531 C 769.289062 458.292969 766.757812 456.984375 764.183594 455.757812 C 759.273438 453.34375 754.328125 450.929688 749.417969 448.554688 L 738.207031 443.03125 C 738.457031 442.796875 738.769531 442.671875 738.972656 442.378906 C 741.820312 437.984375 744.75 433.589844 747.601562 429.15625 C 748.664062 427.558594 749.699219 425.960938 750.730469 424.359375 C 750.558594 426.691406 750.347656 429.066406 750.605469 431.375 C 750.761719 432.957031 751.554688 434.304688 753.101562 434.9375 C 754.839844 435.648438 756.464844 434.9375 758.046875 434.144531 C 760.464844 432.800781 762.753906 431.332031 764.976562 429.710938 C 766.039062 428.957031 767.035156 428.128906 768.058594 427.296875 C 768.417969 427 768.765625 426.6875 769.113281 426.378906 C 769.144531 426.59375 769.179688 426.804688 769.210938 427.019531 C 769.453125 428.484375 769.605469 429.949219 769.769531 431.453125 C 770.042969 434.222656 770.15625 437.074219 770.234375 439.847656 C 770.28125 442.933594 771.945312 445.863281 775.347656 445.824219 C 778.3125 445.824219 781.164062 443.449219 783.582031 441.984375 C 784.703125 441.289062 785.8125 440.625 786.933594 439.957031 Z M 793.875 433.90625 C 792.925781 432.5625 791.265625 432.007812 789.679688 432.246094 C 788.289062 432.402344 787.148438 433.074219 785.996094 433.789062 L 781.957031 436.203125 C 780.808594 436.914062 779.582031 437.667969 778.390625 438.382812 C 777.878906 438.699219 777.328125 439.015625 776.808594 439.332031 C 776.574219 439.460938 776.292969 439.609375 775.996094 439.75 C 775.996094 439.710938 775.976562 439.628906 775.976562 439.609375 C 775.976562 438.222656 775.9375 436.835938 775.859375 435.449219 C 775.707031 432.640625 775.464844 429.832031 775.027344 427.058594 C 774.632812 424.25 774.476562 420.371094 771.027344 419.738281 C 768.023438 419.140625 765.808594 421.753906 763.710938 423.457031 C 761.363281 425.332031 758.859375 427.011719 756.28125 428.5 C 756.269531 427.285156 756.28125 426.050781 756.347656 424.84375 C 756.503906 421.753906 756.976562 418.707031 757.613281 415.65625 C 757.894531 414.429688 757.179688 413.085938 756.066406 412.53125 C 752.703125 410.949219 750.683594 413.996094 749.148438 416.410156 C 747.398438 418.984375 745.695312 421.636719 743.996094 424.207031 C 740.59375 429.433594 737.222656 434.660156 733.78125 439.847656 C 733.589844 440.144531 733.753906 440.484375 733.722656 440.816406 L 732.554688 440.242188 C 729.230469 438.617188 726.65625 443.804688 730.023438 445.425781 C 740.710938 450.691406 751.398438 455.875 762.089844 461.140625 C 764.773438 462.449219 767.507812 463.792969 770.195312 465.101562 C 771.472656 465.734375 772.738281 466.40625 774.042969 467 C 775.183594 467.554688 776.421875 468.226562 777.726562 468.386719 C 781.011719 468.859375 782.992188 466.683594 784.054688 463.835938 C 785.128906 461.023438 786.191406 458.210938 787.261719 455.363281 C 789.359375 449.78125 791.457031 444.199219 793.59375 438.617188 C 794.144531 437.035156 794.976562 435.53125 793.875 433.90625 "/>
</svg>
