<svg xmlns="http://www.w3.org/2000/svg" width="331" height="331" viewBox="374 344 331 331">
<path fill-rule="nonzero" fill="rgb(0%, 0%, 0%)" fill-opacity="1" d="M 552.140625 634.738281 C 515.324219 656.148438 481.304688 617.972656 470.253906 585.792969 C 460.03125 555.726562 460.78125 515.027344 488.046875 494.09375 C 488.992188 493.363281 489.242188 492.367188 489.59375 491.417969 C 522.648438 491.226562 553.824219 506.804688 569.851562 536.703125 C 586.164062 567.386719 585.613281 615.378906 552.140625 634.738281 M 483.484375 479.984375 C 478.640625 480.304688 477.34375 485.335938 479.074219 488.488281 C 450.144531 514.492188 447.847656 559.046875 461.464844 593.902344 C 474.746094 628.128906 509.730469 663.648438 549.347656 648.445312 C 590.523438 632.695312 599.046875 579.996094 584.796875 542.910156 C 568.769531 501.25 527.390625 476.984375 483.484375 479.984375 "/>
<path fill-rule="nonzero" fill="rgb(0%, 0%, 0%)" fill-opacity="1" d="M 481.21875 530.726562 C 482.183594 542.179688 483.816406 553.496094 485.863281 564.8125 C 487.230469 571.835938 497.929688 568.835938 496.566406 561.8125 C 494.652344 551.519531 493.222656 541.222656 492.339844 530.726562 C 491.722656 523.632812 480.605469 523.566406 481.21875 530.726562 "/>
<path fill-rule="nonzero" fill="rgb(0%, 0%, 0%)" fill-opacity="1" d="M 531.800781 553.183594 C 529.40625 542.410156 527.707031 531.503906 526.675781 520.527344 C 526.078125 513.4375 514.890625 513.371094 515.574219 520.527344 C 516.722656 532.527344 518.503906 544.386719 521.101562 556.183594 C 522.664062 563.136719 533.367188 560.136719 531.800781 553.183594 "/>
<path fill-rule="nonzero" fill="rgb(0%, 0%, 0%)" fill-opacity="1" d="M 548.613281 559.242188 C 547.183594 567.972656 544.234375 576.152344 539.125 583.375 C 533.882812 590.808594 523.847656 601.648438 513.894531 599.945312 C 506.886719 598.71875 503.875 609.484375 510.898438 610.648438 C 536.597656 615.078125 555.769531 583.785156 559.300781 562.242188 C 560.53125 555.222656 549.828125 552.222656 548.613281 559.242188 "/>
<path fill-rule="nonzero" fill="rgb(0%, 0%, 0%)" fill-opacity="1" d="M 607.035156 434.117188 C 605.402344 438.550781 603.6875 443.046875 601.976562 447.550781 C 601.175781 449.730469 600.410156 451.84375 599.527344 454.09375 C 599.34375 454.582031 599.078125 455.296875 598.929688 455.613281 C 598.847656 455.605469 598.945312 455.601562 598.847656 455.59375 C 595.78125 453.886719 591.289062 451.910156 587.8125 450.207031 C 583.300781 448.09375 578.9375 445.84375 574.511719 443.730469 C 566.058594 439.574219 557.535156 435.410156 549.078125 431.320312 L 529.773438 421.808594 C 530.203125 421.410156 530.738281 421.191406 531.085938 420.683594 C 535.996094 413.121094 541.039062 405.550781 545.949219 397.917969 C 547.78125 395.160156 549.5625 392.410156 551.34375 389.65625 C 551.042969 393.671875 550.675781 397.761719 551.128906 401.734375 C 551.394531 404.460938 552.757812 406.78125 555.421875 407.871094 C 558.417969 409.097656 561.214844 407.871094 563.941406 406.507812 C 568.105469 404.191406 572.050781 401.664062 575.878906 398.875 C 577.707031 397.574219 579.421875 396.144531 581.1875 394.710938 C 581.800781 394.203125 582.402344 393.664062 583 393.132812 C 583.050781 393.5 583.117188 393.867188 583.167969 394.234375 C 583.582031 396.757812 583.847656 399.28125 584.132812 401.871094 C 584.597656 406.640625 584.796875 411.550781 584.929688 416.324219 C 585.015625 421.640625 587.878906 426.683594 593.734375 426.621094 C 598.847656 426.621094 603.757812 422.527344 607.917969 420.007812 C 609.847656 418.808594 611.761719 417.664062 613.691406 416.515625 Z M 625.644531 406.097656 C 624.011719 403.777344 621.148438 402.828125 618.421875 403.234375 C 616.023438 403.507812 614.058594 404.664062 612.078125 405.890625 L 605.121094 410.054688 C 603.140625 411.277344 601.027344 412.574219 598.980469 413.804688 C 598.097656 414.347656 597.148438 414.894531 596.25 415.4375 C 595.851562 415.664062 595.367188 415.917969 594.851562 416.160156 C 594.851562 416.089844 594.816406 415.953125 594.816406 415.917969 C 594.816406 413.527344 594.75 411.144531 594.617188 408.753906 C 594.351562 403.917969 593.9375 399.078125 593.1875 394.304688 C 592.503906 389.464844 592.238281 382.78125 586.296875 381.691406 C 581.121094 380.667969 577.308594 385.167969 573.695312 388.101562 C 569.652344 391.328125 565.339844 394.222656 560.898438 396.785156 C 560.878906 394.691406 560.898438 392.570312 561.011719 390.484375 C 561.28125 385.167969 562.09375 379.917969 563.195312 374.667969 C 563.675781 372.554688 562.445312 370.234375 560.53125 369.285156 C 554.738281 366.558594 551.261719 371.804688 548.613281 375.964844 C 545.601562 380.394531 542.671875 384.960938 539.742188 389.394531 C 533.882812 398.394531 528.074219 407.394531 522.148438 416.324219 C 521.816406 416.835938 522.097656 417.425781 522.050781 417.992188 L 520.035156 417.007812 C 514.308594 414.210938 509.882812 423.140625 515.675781 425.9375 C 534.082031 435.003906 552.492188 443.933594 570.898438 453 C 575.527344 455.25 580.238281 457.570312 584.863281 459.820312 C 587.0625 460.910156 589.242188 462.070312 591.488281 463.089844 C 593.453125 464.046875 595.585938 465.203125 597.832031 465.480469 C 603.488281 466.296875 606.902344 462.546875 608.734375 457.640625 C 610.578125 452.796875 612.410156 447.957031 614.257812 443.046875 C 617.871094 433.433594 621.480469 423.824219 625.160156 414.210938 C 626.109375 411.484375 627.539062 408.894531 625.644531 406.097656 "/>
</svg>
